<svg xmlns="http://www.w3.org/2000/svg" viewBox="0 0 35.25 22.03"><defs><style>.cls-1{fill:#fff}</style></defs><title>Asset 3</title><g id="Layer_2" data-name="Layer 2"><g id="Layer_1-2" data-name="Layer 1"><path class="cls-1" d="M12.59 13.85h-1.48l-2.41-3.5H6.58l-.09.08v.1a.09.09 0 0 0 0 .05v.12l.58 3H5.3l-1.08-.93h-.74v3a.63.63 0 0 0 .18.48.65.65 0 0 0 .45.19.63.63 0 0 0 .44-.19l1.16-1.15h1.1l-.58 3v.17a.13.13 0 0 0 0 .05l.09.08h2.2v-.05l2.41-3.5h1.48a.63.63 0 1 0 0-1.26zm-5-2.52h.24l1.73 2.52H8.09zm2 3.78l-1.74 2.52h-.24l.48-2.52zM21.4 17h-5a.63.63 0 0 0-.63.63.63.63 0 0 0 .63.63h5a.63.63 0 0 0 .63-.63.63.63 0 0 0-.63-.63zm0-3.15h-5a.63.63 0 1 0 0 1.26h5a.63.63 0 1 0 0-1.26zM16.37 12h5a.63.63 0 0 0 0-1.26h-5a.63.63 0 1 0 0 1.26zm11.96 1.22a.63.63 0 0 0-.63.63v4.41a.63.63 0 0 0 1.26 0v-4.41a.63.63 0 0 0-.63-.63zm0-3.15a.63.63 0 0 0-.63.63v.63a.63.63 0 0 0 1.26 0v-.63a.63.63 0 0 0-.63-.63z"/><path class="cls-1" d="M32.1 0H5.67a3.15 3.15 0 0 0-3.15 3.15V7A3.14 3.14 0 0 0 0 10.07v8.82A3.15 3.15 0 0 0 3.15 22h26.44a3.15 3.15 0 0 0 3.14-3.14V15a3.14 3.14 0 0 0 2.52-3V3.15A3.15 3.15 0 0 0 32.1 0zM1.26 18.89v-8.82a1.89 1.89 0 0 1 1.89-1.89h21.4v12.59H3.15a1.89 1.89 0 0 1-1.89-1.88zm8.87-14.48h.24l1.73 2.51h-1.49zm21.35 14.48a1.89 1.89 0 0 1-1.89 1.88h-3.78V8.18h3.78a1.89 1.89 0 0 1 1.89 1.89zM34 12a1.88 1.88 0 0 1-1.26 1.78v-3.71a3.13 3.13 0 0 0-1.25-2.51v-.64a.63.63 0 0 0-.63-.62.63.63 0 0 0-.63.62V7a3.38 3.38 0 0 0-.63-.07h-16l-2.41-3.5H9l-.09.07v.4l.58 3H7.81L6.74 5.85H6v1.02H3.78V3.15a1.89 1.89 0 0 1 1.89-1.89h21.4V5a.63.63 0 0 0 1.26 0V1.26h3.77A1.89 1.89 0 0 1 34 3.15z"/><path class="cls-1" d="M23.92 3.78h-5a.63.63 0 0 0-.63.63.63.63 0 0 0 .63.63h5a.63.63 0 0 0 .63-.63.63.63 0 0 0-.63-.63zm6.93-.63a.63.63 0 0 0-.63.63v.63a.63.63 0 0 0 .63.63.64.64 0 0 0 .63-.63v-.63a.63.63 0 0 0-.63-.63z"/></g></g></svg>