<svg xmlns="http://www.w3.org/2000/svg" viewBox="0 0 35.5 28.36"><defs><style>.cls-1{fill:#fff;stroke:#e3e3e3;stroke-miterlimit:10;stroke-width:.25px}</style></defs><title>Asset 4</title><g id="Layer_2" data-name="Layer 2"><path class="cls-1" d="M3.38 5.66a10.18 10.18 0 0 0 4 .74 10.23 10.23 0 0 0 4-.74c1.76-.78 2-1.84 2-2.4s-.27-1.61-2-2.39a10.23 10.23 0 0 0-4-.74 10.18 10.18 0 0 0-4 .74c-1.77.78-2 1.83-2 2.39s.26 1.62 2 2.4zm4-3.84c2.66 0 4.35 1 4.35 1.44S10.05 4.7 7.39 4.7s-4.34-.94-4.34-1.44 1.69-1.44 4.34-1.44zM6.15 22.26a.85.85 0 0 1-.85.85H3.36a.85.85 0 0 1 0-1.7H5.3a.85.85 0 0 1 .85.85zm24.36 2a.85.85 0 0 1-.84.85.85.85 0 1 1 .85-.85zm-17-7.86h1a.85.85 0 0 1 0 1.7h-1a.85.85 0 0 1 0-1.7zM15.4 3.29a.85.85 0 0 1 .85-.85H20l-.15-.17c-.14-.18-.27-.33-.4-.48a.87.87 0 0 1 .15-1.2.84.84 0 0 1 1.19.12l.39.47c.18.2.36.43.57.68l.69.85a.81.81 0 0 1 .18.55.86.86 0 0 1-.05.32.79.79 0 0 1-.14.23c-.23.3-.46.58-.68.85l-.57.68-.39.47a.84.84 0 0 1-.65.31.86.86 0 0 1-.66-1.39l.4-.47a1.47 1.47 0 0 1 .1-.13h-3.73a.85.85 0 0 1-.85-.85zm-2.64 4.13a.85.85 0 0 1 0 1.21c-1 1-3 1.64-5.39 1.64S3 9.64 2 8.63a.87.87 0 0 1 0-1.21.86.86 0 0 1 1.2 0 6.4 6.4 0 0 0 4.19 1.16 6.4 6.4 0 0 0 4.17-1.14.86.86 0 0 1 1.2 0zM23 23.38h-4.9a4 4 0 0 0-7.75-.3.64.64 0 0 1-.13-.17.39.39 0 0 1-.05-.2V17a.85.85 0 1 0-1.7 0v5.67a2.11 2.11 0 0 0 .23.95 2.56 2.56 0 0 0 1.54 1.28 4 4 0 0 0 7.86.14H23a.85.85 0 0 0 0-1.7zm-8.82 3.16a2.3 2.3 0 0 1-2.3-2.3 2.31 2.31 0 1 1 2.3 2.33zm-8-7.33a.85.85 0 0 1-.85.85H1a.85.85 0 0 1 0-1.69h4.3a.85.85 0 0 1 .85.84zm29.22-.4c0-2.4-.6-2.88-2.64-4.68l-.76-.68-.57-.54c-.31-.29-.63-.6-1-.89l-.78-.66C26.48 8.7 25.17 7.6 21.89 7.6H16a.85.85 0 0 0 0 1.7h5.86c2.66 0 3.51.71 6.66 3.36l.78.66c.31.26.61.55.9.82s.4.39.61.57l.77.69c.45.4.8.71 1.07 1H20.62a8.59 8.59 0 0 1-2.11-1.73 15.63 15.63 0 0 1-1.81-2.05.85.85 0 0 0-1.56.67 14.45 14.45 0 0 0 2.23 2.65c2.19 2.16 2.9 2.16 3.2 2.16h13.07v4.64a.51.51 0 0 1-.17.36 4 4 0 1 0 .11 1.86 2.4 2.4 0 0 0 1.76-2.22v-3.88zm-5.71 7.73A2.31 2.31 0 1 1 32 24.21a2.32 2.32 0 0 1-2.31 2.3zM15 24.23a.85.85 0 1 1-.85-.85.85.85 0 0 1 .85.85zm-2.2-11.66c-1 1-3 1.65-5.39 1.65S3 13.59 2 12.57a.86.86 0 0 1 0-1.2.84.84 0 0 1 1.2 0 6.41 6.41 0 0 0 4.17 1.13 6.41 6.41 0 0 0 4.17-1.13.85.85 0 0 1 1.22 1.18z" id="Layer_1-2" data-name="Layer 1"/></g></svg>