<svg xmlns="http://www.w3.org/2000/svg" viewBox="0 0 35.25 35.25"><defs><style>.cls-1{fill:#0057ff}</style></defs><title>Asset 7</title><g id="Layer_2" data-name="Layer 2"><g id="Layer_1-2" data-name="Layer 1"><path class="cls-1" d="M16.89 2.94H11a.74.74 0 1 1 0-1.47h5.87a.74.74 0 1 1 0 1.47zm10.28 4.4H.73a.73.73 0 1 1 0-1.46h26.44a.73.73 0 1 1 0 1.46zM8.08 4.41a.74.74 0 0 1-.74-.74V.73a.74.74 0 0 1 1.47 0v2.94a.74.74 0 0 1-.73.74zm11.75 0a.74.74 0 0 1-.74-.74V.73a.74.74 0 0 1 1.47 0v2.94a.74.74 0 0 1-.73.74z"/><path class="cls-1" d="M27.17 17.63a.74.74 0 0 1-.73-.74V6.61a3.68 3.68 0 0 0-3.67-3.67.74.74 0 1 1 0-1.47 5.14 5.14 0 0 1 5.14 5.14v10.28a.74.74 0 0 1-.74.74zM16.89 27.91H5.14A5.15 5.15 0 0 1 0 22.77V6.61a5.14 5.14 0 0 1 5.14-5.14.74.74 0 1 1 0 1.47 3.68 3.68 0 0 0-3.67 3.67v16.16a3.68 3.68 0 0 0 3.67 3.67h11.75a.74.74 0 1 1 0 1.47z"/><path class="cls-1" d="M9.55 23.5a3.67 3.67 0 0 1-3.67-3.67.73.73 0 1 1 1.46 0 2.21 2.21 0 1 0 2.21-2.2H8.08a.74.74 0 1 1 0-1.47h1.47A2.21 2.21 0 1 0 7.34 14a.73.73 0 1 1-1.46 0 3.67 3.67 0 1 1 5.87 2.94 3.67 3.67 0 0 1-2.2 6.61zm8.81 0a.73.73 0 0 1-.73-.73v-10l-1.69 1.68a.73.73 0 0 1-1 0 .75.75 0 0 1 0-1l2.94-2.93a.73.73 0 0 1 1.25.52v11.73a.73.73 0 0 1-.77.73zm8.81 11.75a8.08 8.08 0 1 1 8.08-8.08 8.09 8.09 0 0 1-8.08 8.08zm0-14.69a6.61 6.61 0 1 0 6.61 6.61 6.62 6.62 0 0 0-6.61-6.61zm7.35 0a.7.7 0 0 1-.44-.14l-2.94-2.21A.73.73 0 1 1 32 17l3 2.24a.73.73 0 0 1 .14 1 .72.72 0 0 1-.62.32z"/><path class="cls-1" d="M19.83 20.56a.75.75 0 0 1-.59-.29.74.74 0 0 1 .15-1L22.33 17a.73.73 0 0 1 .88 1.17l-2.94 2.21a.72.72 0 0 1-.44.18zm10.28 10.29a.74.74 0 0 1-.52-.22l-2.94-2.94a.74.74 0 0 1-.21-.52v-4.4a.74.74 0 1 1 1.47 0v4.1l2.72 2.72a.73.73 0 0 1 0 1 .74.74 0 0 1-.52.26z"/></g></g></svg>