<svg xmlns="http://www.w3.org/2000/svg" viewBox="0 0 1000 1000"><path d="M867.5 990h-735C64.8 990 10 935.1 10 867.5v-735C10 64.9 64.8 10 132.5 10h735C935.1 10 990 64.9 990 132.5v735c0 67.6-54.9 122.5-122.5 122.5zm61.2-857.5c0-33.8-27.4-61.2-61.3-61.2h-735c-33.8 0-61.2 27.4-61.2 61.2v735c0 33.8 27.4 61.2 61.2 61.2h735c33.8 0 61.3-27.4 61.3-61.2v-735zm-91.8 336.9c-16.9 0-30.6-13.7-30.6-30.6l1-201.3-208 207.8L556 402l208.2-208.2h-203c-16.9 0-30.6-13.7-30.6-30.6 0-16.9 13.7-30.6 30.6-30.6H836c8.6 0 16.3 3.5 21.8 9.2 5.9 5 9.7 12.4 9.7 21.4v275.6c0 16.9-13.7 30.6-30.6 30.6zM438.7 867.5H164c-8.6 0-16.3-3.5-21.8-9.2-5.9-5-9.7-12.3-9.7-21.4V561.2c0-16.9 13.7-30.6 30.6-30.6 16.9 0 30.6 13.7 30.6 30.6l-1 201.4 207.9-207.9L444 598 235.7 806.2h203c16.9 0 30.6 13.7 30.6 30.6s-13.6 30.7-30.6 30.7z"/></svg>