<svg xmlns="http://www.w3.org/2000/svg" viewBox="0 0 35.25 34.61"><defs><style>.cls-1{fill:#0057ff}</style></defs><title>Asset 8</title><g id="Layer_2" data-name="Layer 2"><g id="Layer_1-2" data-name="Layer 1"><path class="cls-1" d="M8.21 32.26H3.52V6a1.41 1.41 0 0 1 1.35-1.31H6.8A1.42 1.42 0 0 1 8.21 6zm-3.52-1.17H7V6c0-.06-.12-.17-.18-.17h-2c-.06 0-.18.11-.18.17zm24.05 3.52a.41.41 0 0 1-.23-.06l-.24-.06A8.72 8.72 0 0 1 26 33.32a10.15 10.15 0 0 1-3.69-8.1v-5.28a.61.61 0 0 1 .53-.58 12.25 12.25 0 0 0 5.63-2.23.61.61 0 0 1 .64 0 12 12 0 0 0 5.63 2.23.61.61 0 0 1 .53.58v5.28a10 10 0 0 1-3.75 8.1 7.89 7.89 0 0 1-2.29 1.17l-.23.06a.45.45 0 0 1-.26.06zm-5.28-14.14v4.75a8.88 8.88 0 0 0 3.29 7.16 6.86 6.86 0 0 0 2 1 7.78 7.78 0 0 0 2-1A8.87 8.87 0 0 0 34 25.22v-4.75a12.88 12.88 0 0 1-5.28-2.17 13.75 13.75 0 0 1-5.26 2.17z"/><path class="cls-1" d="M25.81 27.57a.56.56 0 0 1-.59-.59v-4.1a.56.56 0 0 1 .35-.53l2.35-1.18a.57.57 0 0 1 .53 1l-2.06 1.06V27a.55.55 0 0 1-.58.57z"/><path class="cls-1" d="M26.45 32.26H2.87A2.88 2.88 0 0 1 0 29.39V9.91A2.88 2.88 0 0 1 2.87 7h29.51a2.88 2.88 0 0 1 2.87 2.87v10.78l-.7-.12a14 14 0 0 1-5.81-2.23 13.75 13.75 0 0 1-5.28 2.17v4.75a8.94 8.94 0 0 0 2.17 6zM2.87 8.21a1.7 1.7 0 0 0-1.7 1.7v19.53a1.7 1.7 0 0 0 1.7 1.65H24a10.5 10.5 0 0 1-1.7-5.87v-5.81l.53-.05a12.25 12.25 0 0 0 5.63-2.23l.35-.24.35.24a13.29 13.29 0 0 0 4.93 2.17V9.91a1.7 1.7 0 0 0-1.7-1.7z"/><path class="cls-1" d="M14.66 8.21H10a.59.59 0 0 1-.59-.58V5.28a.6.6 0 0 1 .59-.59h4.69a.59.59 0 0 1 .59.59v2.35a.58.58 0 0 1-.62.58zM11.14 7h2.35a.59.59 0 0 0 .59-.59.59.59 0 0 0-.59-.58h-2.35a.58.58 0 0 0-.58.58.58.58 0 0 0 .58.59zm14.08 1.21h-4.69a.59.59 0 0 1-.59-.58V5.28a.6.6 0 0 1 .59-.59h4.69a.59.59 0 0 1 .59.59v2.35a.58.58 0 0 1-.59.58zM21.7 7h2.35a.59.59 0 0 0 .59-.59.59.59 0 0 0-.59-.58H21.7a.58.58 0 0 0-.58.58.58.58 0 0 0 .58.59z"/><path class="cls-1" d="M24.64 5.87h-3.52V3.75a.42.42 0 0 0-.12-.23c-.06 0-.18-.12-.29-.06a7.87 7.87 0 0 1-6.1 0c-.18-.06-.3 0-.3.06s-.23.12-.23.23v2.12h-3.52V4.05a4.06 4.06 0 0 1 4-4h6a4.06 4.06 0 0 1 4.05 4.05zm-2.35-1.18h1.17v-.64a2.88 2.88 0 0 0-2.87-2.88h-6a2.88 2.88 0 0 0-2.88 2.88v.64h1.19v-.94a1.4 1.4 0 0 1 .65-1.23A1.37 1.37 0 0 1 15 2.4a6.66 6.66 0 0 0 5.22 0 1.73 1.73 0 0 1 1.41.12 1.47 1.47 0 0 1 .7 1.23zm9.38 15.19l-.82-.35a17.35 17.35 0 0 1-2.11-1.17l-.88.53-.88.47V6a1.41 1.41 0 0 1 1.35-1.35h1.94A1.42 1.42 0 0 1 31.67 6zm-2.93-3l.35.24c.41.29.88.58 1.41.88V6c0-.06-.12-.17-.18-.17h-1.93c-.12 0-.24.11-.24.17v11.2c.06 0 .18-.11.24-.17zm-10.56 7.76a5.28 5.28 0 1 1 5.28-5.28 5.26 5.26 0 0 1-5.28 5.28zm0-9.39a4.11 4.11 0 1 0 4.11 4.11 4.08 4.08 0 0 0-4.11-4.11z"/><path class="cls-1" d="M18.18 21.7a2.35 2.35 0 1 1 2.35-2.34 2.34 2.34 0 0 1-2.35 2.34zm0-3.52a1.18 1.18 0 1 0 1.18 1.18 1.18 1.18 0 0 0-1.18-1.18zM17.69 27h-7.23a.49.49 0 0 1-.49-.49v-6.08a.49.49 0 0 1 .49-.49h3.24a.49.49 0 0 1 .47.37v.1a4.16 4.16 0 0 0 3.43 3.05h.07a.49.49 0 0 1 .49.49v2.54a.49.49 0 0 1-.47.51zm-6.06-1.17h4.89a.49.49 0 0 0 .49-.49v-.43a.48.48 0 0 0-.34-.46 5.31 5.31 0 0 1-3.36-3 .48.48 0 0 0-.45-.29h-1.23a.48.48 0 0 0-.49.49v3.71a.49.49 0 0 0 .49.45zm12.68-7.65h-2A.34.34 0 0 1 22 18l-.08-.16a3.94 3.94 0 0 0-4.8-2.39l-.3.07a.33.33 0 0 1-.41-.32v-3.73a.33.33 0 0 1 .33-.33h7.56a.33.33 0 0 1 .33.33v6.38a.33.33 0 0 1-.32.33zM23.13 17a.33.33 0 0 0 .33-.33v-4a.33.33 0 0 0-.33-.33h-5.2a.32.32 0 0 0-.33.33v1.12a.33.33 0 0 0 .35.33 5.16 5.16 0 0 1 4.9 2.74.3.3 0 0 0 .28.14z"/></g></g></svg>