<svg xmlns="http://www.w3.org/2000/svg" viewBox="0 0 29.28 32.41"><defs><style>.cls-1{fill:#0057ff}</style></defs><title>Asset 6</title><g id="Layer_2" data-name="Layer 2"><g id="Layer_1-2" data-name="Layer 1"><path class="cls-1" d="M14.64 25.76a.63.63 0 0 0-.63.63.63.63 0 1 0 1.26 0 .63.63 0 0 0-.63-.63z"/><path class="cls-1" d="M28.65 31.15a2.62 2.62 0 0 1-2.26-1.31.63.63 0 0 0-.54-.31.63.63 0 0 0-.55.31 2.66 2.66 0 0 1-2 1.3 54.31 54.31 0 0 0 3.17-8 .16.16 0 0 0 0-.09c.29-.9.56-1.78.8-2.59v-.05c.28-1 .53-1.83.72-2.57a.62.62 0 0 0-.16-.61A40.6 40.6 0 0 0 22 12.48l-.15-4.86a1.41 1.41 0 0 0-1.41-1.39h-2.61l-.28-3-.2-2.11A1.2 1.2 0 0 0 16.17 0h-3.06a1.21 1.21 0 0 0-1.18 1.13l-.2 2.11-.28 3H8.81A1.42 1.42 0 0 0 7.4 7.62l-.15 4.86a40.6 40.6 0 0 0-5.8 4.74.62.62 0 0 0-.16.61c.19.74.44 1.6.71 2.56v.06c.24.81.51 1.69.8 2.59a.16.16 0 0 0 0 .09 54.31 54.31 0 0 0 3.17 8 2.66 2.66 0 0 1-2-1.3.63.63 0 0 0-.55-.31.63.63 0 0 0-.54.31 2.62 2.62 0 0 1-2.25 1.32.63.63 0 1 0 0 1.26 3.86 3.86 0 0 0 2.8-1.2 3.89 3.89 0 0 0 2.81 1.2 4.22 4.22 0 0 0 .93-.11A4 4 0 0 0 9 31.21a3.87 3.87 0 0 0 5.6 0 3.87 3.87 0 0 0 5.6 0 3.89 3.89 0 0 0 1.82 1.07h.06a4.06 4.06 0 0 0 .92.11 3.89 3.89 0 0 0 2.81-1.2 3.86 3.86 0 0 0 2.8 1.2.63.63 0 0 0 0-1.26zm-2.33-12a61.52 61.52 0 0 0-11-7.31v-1.71A38.22 38.22 0 0 1 21 13.31l.11.07a39.72 39.72 0 0 1 5.56 4.48c-.1.39-.22.81-.35 1.26zM13.18 1.27h2.92l.13 1.42h-3.18zM12.94 4h3.4l.21 2.27h-3.82zM8.67 7.66a.16.16 0 0 1 .14-.17h11.66a.16.16 0 0 1 .14.17l.13 4a36.87 36.87 0 0 0-5.85-3h-.19a.24.24 0 0 0-.12 0h-.19a37.3 37.3 0 0 0-5.85 3zm-.5 5.73l.11-.08A38.22 38.22 0 0 1 14 10.13v1.68a61.52 61.52 0 0 0-11 7.31c-.13-.45-.25-.87-.35-1.26a39 39 0 0 1 5.52-4.47zm12.62 16.45H20a2.59 2.59 0 0 1-4.5 0 .63.63 0 0 0-.55-.31.65.65 0 0 0-.55.31 2.59 2.59 0 0 1-4.5 0H8.71a2.53 2.53 0 0 1-1.38 1.06 50.26 50.26 0 0 1-3.16-7.81l.54-.47c.38-.33.79-.68 1.21-1a.63.63 0 0 0-.8-1c-.43.35-.85.7-1.25 1.05l-.12.11c-.15-.46-.28-.9-.41-1.33A63.71 63.71 0 0 1 14 13.22v11.35a.63.63 0 1 0 1.26 0V13.22a63.71 63.71 0 0 1 10.67 7.23l-.4 1.33-.13-.11c-.82-.72-1.71-1.44-2.73-2.21a.64.64 0 0 0-.76 1c1 .73 1.87 1.46 2.65 2.14l.55.47A51.27 51.27 0 0 1 22 30.9a2.53 2.53 0 0 1-1.21-1.06z"/><path class="cls-1" d="M7.41 19.5a.64.64 0 0 0-.86 0 .59.59 0 0 0-.13.18.63.63 0 0 0 .28.85.71.71 0 0 0 .3.07.63.63 0 0 0 .48-.21.63.63 0 0 0-.07-.89z"/></g></g></svg>