<svg xmlns="http://www.w3.org/2000/svg" viewBox="0 0 48.5 47.71"><defs><style>.cls-1{fill:#0057ff}</style></defs><title>Asset 4</title><g id="Layer_2" data-name="Layer 2"><g id="Layer_1-2" data-name="Layer 1"><path class="cls-1" d="M15.45 19.46h8.8a.8.8 0 0 0 0-1.6h-8.8a.8.8 0 1 0 0 1.6z"/><path class="cls-1" d="M24.25 19.71h-8.8a1.05 1.05 0 1 1 0-2.1h8.8a1.05 1.05 0 0 1 0 2.1zm-8.8-1.6a.55.55 0 1 0 0 1.1h8.8a.55.55 0 0 0 0-1.1zm12.8 5.35h-16.8a.8.8 0 0 0 0 1.6h16.8a.8.8 0 0 0 0-1.6z"/><path class="cls-1" d="M28.25 25.31h-16.8a1 1 0 0 1 0-2.1h16.8a1.05 1.05 0 0 1 0 2.1zm-16.8-1.6a.55.55 0 0 0 0 1.1h16.8a.55.55 0 1 0 0-1.1zm16.8 5.35h-16.8a.8.8 0 1 0 0 1.6h16.8a.8.8 0 0 0 0-1.6z"/><path class="cls-1" d="M28.25 30.91h-16.8a1.05 1.05 0 1 1 0-2.1h16.8a1.05 1.05 0 0 1 0 2.1zm-16.8-1.6a.55.55 0 1 0 0 1.1h16.8a.55.55 0 0 0 0-1.1z"/><path class="cls-1" d="M36.43.25H20.87A11.81 11.81 0 0 0 9.62 8.51 11.83 11.83 0 0 0 .25 20.07v9.08A12.12 12.12 0 0 0 11.45 41v5.19a1.21 1.21 0 0 0 .71 1.17 1.12 1.12 0 0 0 1.25-.29l1.22-1.21a16.58 16.58 0 0 1 11.85-4.83h1.15a11.84 11.84 0 0 0 11.27-8.3 12.11 12.11 0 0 0 9.35-11.59v-9.07A11.83 11.83 0 0 0 36.43.25zm-8.8 39.2h-1.15a18.24 18.24 0 0 0-13 5.29l-.44.45v-8.27a.8.8 0 0 0-1.6 0v2.49a10.5 10.5 0 0 1-9.6-10.27v-9.07a10.24 10.24 0 0 1 8.1-10l.42-.07c.29-.05.57-.08.85-.11s.44 0 .67 0h15.75a10.23 10.23 0 0 1 10.22 10.18v10.6c-.07.39-.14.79-.25 1.18l-.13.45a10.24 10.24 0 0 1-9.72 7.15zm19-18.31A10.47 10.47 0 0 1 39.3 31a1.1 1.1 0 0 0 0-.18c0-.21.06-.41.08-.62s.05-.68.05-1v-9.13a11.72 11.72 0 0 0-.24-2.38 11.85 11.85 0 0 0-11.56-9.44H11.37a10.25 10.25 0 0 1 9.48-6.42h15.58a10.23 10.23 0 0 1 10.22 10.24z"/><path class="cls-1" d="M12.57 47.71a1.24 1.24 0 0 1-.5-.1 1.46 1.46 0 0 1-.87-1.4v-5A12.4 12.4 0 0 1 0 29.15v-9.08A12.14 12.14 0 0 1 9.43 8.29 12 12 0 0 1 20.87 0h15.56A12.08 12.08 0 0 1 48.5 12.07v9.07a12.32 12.32 0 0 1-9.4 11.8 12 12 0 0 1-11.47 8.36h-1.15a16.38 16.38 0 0 0-11.68 4.75l-1.22 1.22a1.44 1.44 0 0 1-1.01.44zM20.87.5a11.51 11.51 0 0 0-11 8.08v.14h-.15A11.63 11.63 0 0 0 .5 20.07v9.08a11.89 11.89 0 0 0 11 11.62h.23v5.42a1 1 0 0 0 .56.94.88.88 0 0 0 1-.23l1.22-1.22a16.86 16.86 0 0 1 12-4.9h1.15a11.54 11.54 0 0 0 11-8.15l.05-.14h.14A11.79 11.79 0 0 0 48 21.14v-9.07A11.58 11.58 0 0 0 36.43.5zM12.8 45.79v-8.87a.55.55 0 0 0-1.1 0v2.76h-.27A10.78 10.78 0 0 1 1.6 29.14v-9.07A10.51 10.51 0 0 1 9.9 9.83l.43-.07c.3 0 .59-.09.87-.11s.45 0 .69 0h15.74A10.49 10.49 0 0 1 38.1 20.07v9.82l-.1.81a9.45 9.45 0 0 1-.25 1.21l-.12.45a10.46 10.46 0 0 1-10 7.34h-1.15a17.92 17.92 0 0 0-12.81 5.22zm-.55-9.91a1 1 0 0 1 1.05 1v7.66a18.45 18.45 0 0 1 13.18-5.34h1.15a10 10 0 0 0 9.49-7l.12-.44a10.9 10.9 0 0 0 .24-1.15l.09-.78v-9.76a10 10 0 0 0-10-10H11.24c-.22 0-.54.06-.83.11l-.42.07a10 10 0 0 0-7.89 9.82v9.07a10.28 10.28 0 0 0 9.1 10v-2.22a1 1 0 0 1 1.05-1.04zM39 31.33l.07-.4v-.18c0-.2.05-.4.07-.6 0-.36.05-.69.05-1v-9.08a12.11 12.11 0 0 0-.19-2.33A11.62 11.62 0 0 0 27.63 8.5H11.01l.15-.37a10.41 10.41 0 0 1 9.71-6.53h15.56A10.49 10.49 0 0 1 46.9 12.07v9.07a10.72 10.72 0 0 1-7.52 10.07zM27.63 8a12.12 12.12 0 0 1 11.83 9.64 12.36 12.36 0 0 1 .24 2.43v9.07c0 .34 0 .68-.05 1.06v.41a10.2 10.2 0 0 0 6.8-9.47v-9.07a10 10 0 0 0-10-10H20.87A10 10 0 0 0 11.78 8h15.85z"/></g></g></svg>