<svg xmlns="http://www.w3.org/2000/svg" viewBox="0 0 35.25 35.25"><defs><style>.cls-1{fill:#fff}</style></defs><title>Asset 3</title><g id="Layer_2" data-name="Layer 2"><g id="Layer_1-2" data-name="Layer 1"><path class="cls-1" d="M.59 35.25h2.35a.59.59 0 0 0 .59-.59V32.9h17.62v1.76a.58.58 0 0 0 .59.59h2.35a.59.59 0 0 0 .59-.59v-9.4a2.94 2.94 0 0 0-2.35-2.87V17a1.76 1.76 0 0 0-1.77-1.76H4.11A1.76 1.76 0 0 0 2.35 17v5.35A2.94 2.94 0 0 0 0 25.26v9.4a.58.58 0 0 0 .59.59zm22.91-1.17h-1.17v-1.77a.59.59 0 0 0-.59-.58H2.94a.58.58 0 0 0-.59.58v1.77H1.18v-4.7H23.5zm-20-17a.58.58 0 0 1 .58-.59h16.48a.58.58 0 0 1 .59.59v5.29H20V20a1.77 1.77 0 0 0-1.77-1.77h-3.54A1.76 1.76 0 0 0 12.93 20v2.35h-1.18V20A1.76 1.76 0 0 0 10 18.21H6.46A1.76 1.76 0 0 0 4.7 20v2.35H3.53zm15.3 5.25h-4.7V20a.58.58 0 0 1 .59-.59h3.52a.58.58 0 0 1 .59.59zm-8.22 0h-4.7V20a.58.58 0 0 1 .58-.59H10a.59.59 0 0 1 .59.59zm-9.4 2.93a1.76 1.76 0 0 1 1.76-1.76h18.8a1.76 1.76 0 0 1 1.76 1.76v2.94H1.18zm33.88-2.93H26a.19.19 0 0 0-.19.19v8.66a.55.55 0 0 0 .55.55h.08a.55.55 0 0 0 .55-.55v-2.79a.19.19 0 0 1 .19-.19h6.67a.2.2 0 0 1 .19.19v2.79a.55.55 0 0 0 .55.55h.07a.55.55 0 0 0 .55-.55v-8.66a.18.18 0 0 0-.15-.19zm-8 4.51v-3.15a.19.19 0 0 1 .19-.19h6.67a.2.2 0 0 1 .19.19v3.15a.2.2 0 0 1-.19.19h-6.7a.19.19 0 0 1-.22-.19z"/><rect class="cls-1" x="29.38" y="24.68" width="2.35" height="1.18" rx=".55" ry=".55"/><path class="cls-1" d="M32.9 18.21a.6.6 0 0 0 .48-.24.59.59 0 0 0 .08-.53l-1.18-3.53a.58.58 0 0 0-.55-.4h-2.35a.59.59 0 0 0-.56.41l-1.18 3.52a.56.56 0 0 0 .09.53.58.58 0 0 0 .47.24H30V20h-.62a.55.55 0 0 0-.55.55v.07a.55.55 0 0 0 .55.55h2.42a.55.55 0 0 0 .55-.55v-.07a.54.54 0 0 0-.55-.55h-.62v-1.79zm-3.1-3.52h1.5l.79 2.31H29z"/><path class="cls-1" d="M34.9 7.69L17.87.05a.57.57 0 0 0-.48 0L.35 7.69a.58.58 0 0 0-.35.54v6.5a.55.55 0 0 0 .55.55h.07a.56.56 0 0 0 .56-.55V9a.55.55 0 0 1 .32-.5l15.9-7.17a.59.59 0 0 1 .45 0l15.9 7.13a.56.56 0 0 1 .33.5v5.77a.55.55 0 0 0 .55.55h.07a.55.55 0 0 0 .55-.55v-6.5a.57.57 0 0 0-.35-.54z"/><path class="cls-1" d="M13.51 8.81a4.12 4.12 0 1 0 8.23 0 3.82 3.82 0 0 0-.06-.68l-1.16.19a2.7 2.7 0 0 1 0 .49 2.94 2.94 0 1 1-2.93-2.93 3 3 0 0 1 1 .16L19 4.93a4.24 4.24 0 0 0-1.37-.23 4.12 4.12 0 0 0-4.12 4.11z"/><path class="cls-1" d="M16.49 8.19l-.07.07a.54.54 0 0 0 0 .76l.79.8a.63.63 0 0 0 .42.17.58.58 0 0 0 .37-.17l3.73-3.74a.54.54 0 0 0 0-.76l-.07-.07a.54.54 0 0 0-.76 0L18 8.19a.54.54 0 0 1-.76 0 .54.54 0 0 0-.75 0z"/></g></g></svg>