<svg xmlns="http://www.w3.org/2000/svg" viewBox="0 0 35.5 35.5"><defs><style>.cls-1{fill:#fff;stroke:#e3e3e3;stroke-miterlimit:10;stroke-width:.25px}</style></defs><title>Asset 9</title><g id="Layer_2" data-name="Layer 2"><path class="cls-1" d="M23.47 26.56a.74.74 0 0 1-.74.74H10.6a.74.74 0 0 1 0-1.47h12.13a.74.74 0 0 1 .74.73zm.18-12.48a7.34 7.34 0 0 1-7.34 7.34 7.35 7.35 0 0 1 0-14.69 7.35 7.35 0 0 1 7.34 7.35zm-13.19-.74h2.9V9.67a2.92 2.92 0 0 1 .09-.73 5.91 5.91 0 0 0-3 4.4zm3 5.88a2.92 2.92 0 0 1-.09-.73v-3.68h-2.9a5.91 5.91 0 0 0 3 4.41zm4.32-4.41h-2.95v3.68a1.47 1.47 0 0 0 2.94 0zm0-5.14a1.47 1.47 0 1 0-2.94 0v3.67h2.94zm4.37 5.14h-2.9v3.68a2.92 2.92 0 0 1-.09.73 5.91 5.91 0 0 0 3-4.41zm0-1.47a5.91 5.91 0 0 0-3-4.4 2.92 2.92 0 0 1 .09.73v3.67zm13-2.91l-7.09 17.1v4.18a3.67 3.67 0 0 1-3.67 3.67H2.33a2.2 2.2 0 0 1-2.2-2.21V2.33a2.19 2.19 0 0 1 2.2-2.2h22.06a3.67 3.67 0 0 1 3.67 3.67v.52l5.5 2.27a2.89 2.89 0 0 1 1.59 1.59 2.92 2.92 0 0 1 0 2.25zM4.54 1.59H2.33a.74.74 0 0 0-.74.74v30.84a.74.74 0 0 0 .74.74h2.21zM26.6 3.8a2.21 2.21 0 0 0-2.21-2.21H6v32.32h18.39a2.21 2.21 0 0 0 2.21-2.2V11.28a.45.45 0 0 1 0-.23V4.83zm7.19 4.94A1.46 1.46 0 0 0 33 8l-4.94-2v4.77l1.21.49a.74.74 0 0 1 .4 1 .73.73 0 0 1-1 .4l-.65-.27v11.3l4.05-9.75-.78-.33a.73.73 0 1 1 .56-1.35l.78.32 1.12-2.72a1.41 1.41 0 0 0 0-1.12z" id="Layer_1-2" data-name="Layer 1"/></g></svg>