<svg xmlns="http://www.w3.org/2000/svg" viewBox="0 0 35.25 22.03"><defs><style>.cls-1{fill:#fff;}</style></defs><title>Asset 3</title><g id="Layer_2" data-name="Layer 2"><g id="Layer_1-2" data-name="Layer 1"><path class="cls-1" d="M12.59,13.85H11.11L8.7,10.35v0l0,0,0,0v0l0,0,0,0,0,0h0l0,0,0,0H6.58l0,0h0l0,0h0l-.09.08h0l0,0,0,0,0,0s0,0,0,0h0a.08.08,0,0,1,0,0h0s0,0,0,0v.1a.09.09,0,0,0,0,.05h0v0h0v.12h0l.58,3H5.3L4.22,12.77h0l0,0,0,0h0l0,0,0,0H3.48l0,0,0,0h0l0,0,0,0h0v0l0,0,0,0,0,0v0l0,0V13l0,0v2.77a.63.63,0,0,0,.18.48.65.65,0,0,0,.45.19.63.63,0,0,0,.44-.19l1.16-1.15H6.81l-.58,3h0v.12h0v0h0v.05h0s0,0,0,0v0l0,0h0s0,0,0,0h0a.13.13,0,0,0,0,.05v0l0,0,0,0h0l.09.08h0l0,0h0l0,0h0l0,0H8.41l.05,0h0l.06,0h0l0,0,0,0,0,0,0,0,0-.05h0l2.41-3.5h1.48a.63.63,0,1,0,0-1.26Zm-5-2.52h.24l1.73,2.52H8.09Zm2,3.78L7.85,17.63H7.61l.48-2.52Z"/><path class="cls-1" d="M21.4,17h-5a.63.63,0,0,0-.63.63.63.63,0,0,0,.63.63h5a.63.63,0,0,0,.63-.63A.63.63,0,0,0,21.4,17Z"/><path class="cls-1" d="M21.4,13.85h-5a.63.63,0,1,0,0,1.26h5a.63.63,0,1,0,0-1.26Z"/><path class="cls-1" d="M16.37,12h5a.63.63,0,0,0,0-1.26h-5a.63.63,0,1,0,0,1.26Z"/><path class="cls-1" d="M28.33,13.22a.63.63,0,0,0-.63.63v4.41a.63.63,0,0,0,1.26,0V13.85a.63.63,0,0,0-.63-.63Z"/><path class="cls-1" d="M28.33,10.07a.63.63,0,0,0-.63.63v.63a.63.63,0,0,0,1.26,0V10.7a.63.63,0,0,0-.63-.63Z"/><path class="cls-1" d="M32.1,0H5.67A3.15,3.15,0,0,0,2.52,3.15V7A3.14,3.14,0,0,0,0,10.07v8.82A3.15,3.15,0,0,0,3.15,22H29.59a3.15,3.15,0,0,0,3.14-3.14V15A3.14,3.14,0,0,0,35.25,12V3.15A3.15,3.15,0,0,0,32.1,0ZM1.26,18.89V10.07A1.89,1.89,0,0,1,3.15,8.18h21.4V20.77H3.15a1.89,1.89,0,0,1-1.89-1.88ZM10.13,4.41h.24L12.1,6.92H10.61ZM31.48,18.89a1.89,1.89,0,0,1-1.89,1.88H25.81V8.18h3.78a1.89,1.89,0,0,1,1.89,1.89ZM34,12a1.88,1.88,0,0,1-1.26,1.78V10.07a3.13,3.13,0,0,0-1.25-2.51V6.92a.63.63,0,0,0-.63-.62.63.63,0,0,0-.63.62V7a3.38,3.38,0,0,0-.63-.07h-16l-2.41-3.5v0l0,0s0,0,0,0l0,0,0,0h0l0,0,0,0,0,0h0l0,0h0l0,0H9.18l0,0H9.05l0,0H9l-.09.07h0l0,0,0,0,0,0s0,0,0,.05h0l0,0h0a.08.08,0,0,1,0,0v0a.08.08,0,0,0,0,0v.06h0a.43.43,0,0,1,0,0h0V3.9h0l.58,3H7.81L6.74,5.85h0l0,0,0,0,0,0,0,0H6.56l0,0H6.05l0,0H6l0,0,0,0,0,0,0,0h0l0,0,0,0,0,0,0,0V6l0,0v.87H3.78V3.15A1.89,1.89,0,0,1,5.67,1.26h21.4V5a.63.63,0,0,0,1.26,0V1.26H32.1A1.89,1.89,0,0,1,34,3.15Z"/><path class="cls-1" d="M23.92,3.78h-5a.63.63,0,0,0-.63.63.63.63,0,0,0,.63.63h5a.63.63,0,0,0,.63-.63.63.63,0,0,0-.63-.63Z"/><path class="cls-1" d="M30.85,3.15a.63.63,0,0,0-.63.63v.63a.63.63,0,0,0,.63.63.64.64,0,0,0,.63-.63V3.78a.63.63,0,0,0-.63-.63Z"/></g></g></svg>