<svg xmlns="http://www.w3.org/2000/svg" viewBox="0 0 35.25 28.7"><defs><style>.cls-1{fill:#fff;}</style></defs><title>Asset 5</title><g id="Layer_2" data-name="Layer 2"><g id="Layer_1-2" data-name="Layer 1"><path class="cls-1" d="M33.43,5h-.7V2.48a2.14,2.14,0,0,0-2-2.09L23.13,0c-.85,0-2.23,0-3.08,0l-4.6.22a6.39,6.39,0,0,1,.9,1l1.25-.06V2.69a1.87,1.87,0,0,0,2,1.81h4a2,2,0,0,0,2.08-1.81V1.16l5,.24a1.09,1.09,0,0,1,1,1.08V13.22A36.64,36.64,0,0,1,24,15a3.39,3.39,0,0,0,.58-1.38h4.09a.5.5,0,0,0,.5-.51.5.5,0,0,0-.5-.5H22.59a.5.5,0,0,0-.51.5.51.51,0,0,0,.51.51h.93A2,2,0,0,1,22,15.08h-.42a23.36,23.36,0,0,1-3-.21v1a25.28,25.28,0,0,0,3,.19h.59a35.71,35.71,0,0,0,9.52-1.8v9.87a1.58,1.58,0,0,1-1.57,1.52H16.84l1,1h8.84v.5a1.46,1.46,0,0,0,1.45,1.51h1a1.56,1.56,0,0,0,1.57-1.51v-.56a2.53,2.53,0,0,0,2-2.47V12.06h.7a1.82,1.82,0,0,0,1.82-1.77V6.77A1.82,1.82,0,0,0,33.43,5ZM24.66,2.69c0,.44-.51.8-1.07.8h-4a.87.87,0,0,1-.95-.8V1.11L20.12,1c.41,0,.94,0,1.47,0s1.1,0,1.51,0l1.56.07Zm5.05,24.5a.57.57,0,0,1-.57.51h-1a.46.46,0,0,1-.44-.51v-.5h2Zm4.53-16.9a.81.81,0,0,1-.81.77h-.7V6h.7a.8.8,0,0,1,.81.76Z"/><path class="cls-1" d="M19.92,6.66a.5.5,0,0,0-.71,0l-.79.78V8.87l1.5-1.5A.5.5,0,0,0,19.92,6.66Z"/><path class="cls-1" d="M28.64,19.12h-10L17.1,20.7v.94a.56.56,0,0,1-.56.51h-.21l-.65.65.36.36h12.6a1.57,1.57,0,0,0,1.57-1.52v-1A1.57,1.57,0,0,0,28.64,19.12Zm-3.47,1.51v1a1.39,1.39,0,0,0,0,.51H18a1.33,1.33,0,0,0,.15-.51v-1a1.28,1.28,0,0,0-.15-.5H25.2A1.34,1.34,0,0,0,25.17,20.63Zm4,1a.56.56,0,0,1-.56.51h-2a.46.46,0,0,1-.44-.51v-1a.45.45,0,0,1,.44-.5h2a.55.55,0,0,1,.56.5Z"/><path class="cls-1" d="M4.85,13A2.08,2.08,0,1,0,6.92,15,2.08,2.08,0,0,0,4.85,13Zm0,3.12a1,1,0,1,1,1-1A1,1,0,0,1,4.85,16.08Z"/><path class="cls-1" d="M13.15,13A2.08,2.08,0,1,0,15.22,15,2.08,2.08,0,0,0,13.15,13Zm0,3.12a1,1,0,1,1,1-1A1,1,0,0,1,13.15,16.08Z"/><path class="cls-1" d="M3.81,11.93H14.18a.58.58,0,0,0,.58-.52V4.66a.57.57,0,0,0-.58-.51H3.81a.47.47,0,0,0-.46.51v6.75A.47.47,0,0,0,3.81,11.93Zm.58-6.74h9.34v5.7H4.39Z"/><rect class="cls-1" x="-1.11" y="25.41" width="5.68" height="1.04" transform="translate(-22.24 15.89) rotate(-63.43)"/><rect class="cls-1" x="14.96" y="23.2" width="1.04" height="5.47" transform="translate(-8.12 7.09) rotate(-20.56)"/><rect class="cls-1" x="5.43" y="23.86" width="7.26" height="1.04"/><rect class="cls-1" x="3.87" y="26.46" width="10.38" height="1.04"/><path class="cls-1" d="M11.6,0H6.4A6.18,6.18,0,0,0,.24,6.22V16.59A6.19,6.19,0,0,0,6.4,22.83h5.2a6.29,6.29,0,0,0,6.28-6.24V6.22A6.28,6.28,0,0,0,11.6,0Zm5.24,16.59a5.26,5.26,0,0,1-5.24,5.2H6.4a5.15,5.15,0,0,1-5.12-5.2V6.22A5.13,5.13,0,0,1,6.4,1h5.2a5.24,5.24,0,0,1,5.24,5.18Z"/></g></g></svg>