<svg xmlns="http://www.w3.org/2000/svg" viewBox="0 0 49.5 49.04"><defs><style>.cls-1,.cls-2{fill:#fff;}.cls-2{stroke:#fff;stroke-miterlimit:10;}</style></defs><title>Asset 4</title><g id="Layer_2" data-name="Layer 2"><g id="Layer_1-2" data-name="Layer 1"><path class="cls-1" d="M12.9,7.44V.85c0-.33-.36-.6-.8-.6s-.8.27-.8.6V7.44c0,.33.36.6.8.6s.8-.27.8-.6Z"/><path class="cls-1" d="M12.1,8.29a1,1,0,0,1-1-.85V.85a1,1,0,0,1,1-.85,1,1,0,0,1,1.05.85V7.44A1,1,0,0,1,12.1,8.29ZM12.1.5c-.33,0-.55.18-.55.35V7.44c0,.17.22.35.55.35s.55-.18.55-.35V.85C12.65.68,12.42.5,12.1.5Z"/><path class="cls-1" d="M31.9,7.44V.85c0-.33-.36-.6-.8-.6s-.8.27-.8.6V7.44c0,.33.36.6.8.6s.8-.27.8-.6Z"/><path class="cls-1" d="M31.1,8.29a1,1,0,0,1-1.05-.85V.85a1.07,1.07,0,0,1,2.1,0V7.44A1,1,0,0,1,31.1,8.29ZM31.1.5c-.33,0-.55.18-.55.35V7.44c0,.17.22.35.55.35s.55-.18.55-.35V.85C31.65.68,31.42.5,31.1.5Z"/><rect class="cls-2" x="9" y="20.54" width="2.5" height="4" rx="1.25" ry="1.25" transform="translate(-12.29 32.79) rotate(-90)"/><rect class="cls-2" x="9" y="30.54" width="2.5" height="4" rx="1.25" ry="1.25" transform="translate(-22.29 42.79) rotate(-90)"/><rect class="cls-2" x="20" y="30.54" width="2.5" height="4" rx="1.25" ry="1.25" transform="translate(-11.29 53.79) rotate(-90)"/><rect class="cls-2" x="20" y="20.54" width="2.5" height="4" rx="1.25" ry="1.25" transform="translate(-1.29 43.79) rotate(-90)"/><rect class="cls-2" x="31" y="20.54" width="2.5" height="4" rx="1.25" ry="1.25" transform="translate(9.71 54.79) rotate(-90)"/><rect class="cls-1" x="15.5" y="3.54" width="16.5" height="2"/><path class="cls-1" d="M42,7.54a4,4,0,0,0-4-4H34.5v2H38a2,2,0,0,1,2,2V23.28a13.34,13.34,0,0,1,2,.52Z"/><path class="cls-1" d="M4,39.54a2,2,0,0,1-2-2v-30a2,2,0,0,1,2-2h9v-2H4a4,4,0,0,0-4,4v30a4,4,0,0,0,4,4H24.26a13.34,13.34,0,0,1-.52-2Z"/><rect class="cls-1" x="1.5" y="12.04" width="40" height="2"/><polygon class="cls-1" points="36.89 36.65 32.84 32.43 30.5 34.43 36.89 42.64 48.75 29.87 46.93 28.04 36.89 36.65"/><path class="cls-1" d="M47.23,34.75A10.18,10.18,0,0,1,47.5,37a10,10,0,1,1-10-10,9.9,9.9,0,0,1,5.92,2L45,27.67A12,12,0,1,0,49.5,37a11.75,11.75,0,0,0-.7-4Z"/></g></g></svg>