<svg xmlns="http://www.w3.org/2000/svg" viewBox="0 0 35.25 34.61"><defs><style>.cls-1{fill:#fff;}</style></defs><title>Asset 8</title><g id="Layer_2" data-name="Layer 2"><g id="Layer_1-2" data-name="Layer 1"><path class="cls-1" d="M8.21,32.26H3.52V6A1.41,1.41,0,0,1,4.87,4.69H6.8A1.42,1.42,0,0,1,8.21,6ZM4.69,31.09H7V6c0-.06-.12-.17-.18-.17h-2c-.06,0-.18.11-.18.17Z"/><path class="cls-1" d="M28.74,34.61a.41.41,0,0,1-.23-.06l-.24-.06A8.72,8.72,0,0,1,26,33.32a10.15,10.15,0,0,1-3.69-8.1V19.94a.61.61,0,0,1,.53-.58,12.25,12.25,0,0,0,5.63-2.23.61.61,0,0,1,.64,0,12,12,0,0,0,5.63,2.23.61.61,0,0,1,.53.58v5.28a10,10,0,0,1-3.75,8.1,7.89,7.89,0,0,1-2.29,1.17l-.23.06A.45.45,0,0,1,28.74,34.61ZM23.46,20.47v4.75a8.88,8.88,0,0,0,3.29,7.16,6.86,6.86,0,0,0,2,1h0a7.78,7.78,0,0,0,2-1A8.87,8.87,0,0,0,34,25.22V20.47a12.88,12.88,0,0,1-5.28-2.17A13.75,13.75,0,0,1,23.46,20.47Z"/><path class="cls-1" d="M25.81,27.57a.56.56,0,0,1-.59-.59v-4.1a.56.56,0,0,1,.35-.53l2.35-1.18a.57.57,0,0,1,.53,1l-2.06,1.06V27A.55.55,0,0,1,25.81,27.57Z"/><path class="cls-1" d="M26.45,32.26H2.87A2.88,2.88,0,0,1,0,29.39V9.91A2.88,2.88,0,0,1,2.87,7H32.38a2.88,2.88,0,0,1,2.87,2.87V20.65l-.7-.12a14,14,0,0,1-5.81-2.23,13.75,13.75,0,0,1-5.28,2.17v4.75a8.94,8.94,0,0,0,2.17,6ZM2.87,8.21a1.7,1.7,0,0,0-1.7,1.7V29.44a1.7,1.7,0,0,0,1.7,1.65H24a10.5,10.5,0,0,1-1.7-5.87V19.41l.53-.05a12.25,12.25,0,0,0,5.63-2.23l.35-.24.35.24a13.29,13.29,0,0,0,4.93,2.17V9.91a1.7,1.7,0,0,0-1.7-1.7Z"/><path class="cls-1" d="M14.66,8.21H10a.59.59,0,0,1-.59-.58V5.28A.6.6,0,0,1,10,4.69h4.69a.59.59,0,0,1,.59.59V7.63A.58.58,0,0,1,14.66,8.21ZM11.14,7h2.35a.59.59,0,0,0,.59-.59h0a.59.59,0,0,0-.59-.58H11.14a.58.58,0,0,0-.58.58h0A.58.58,0,0,0,11.14,7Z"/><path class="cls-1" d="M25.22,8.21H20.53a.59.59,0,0,1-.59-.58V5.28a.6.6,0,0,1,.59-.59h4.69a.59.59,0,0,1,.59.59V7.63A.58.58,0,0,1,25.22,8.21ZM21.7,7h2.35a.59.59,0,0,0,.59-.59h0a.59.59,0,0,0-.59-.58H21.7a.58.58,0,0,0-.58.58h0A.58.58,0,0,0,21.7,7Z"/><path class="cls-1" d="M24.64,5.87H21.12V3.75A.42.42,0,0,0,21,3.52c-.06,0-.18-.12-.29-.06a7.87,7.87,0,0,1-6.1,0c-.18-.06-.3,0-.3.06s-.23.12-.23.23V5.87H10.56V4.05a4.06,4.06,0,0,1,4-4h6a4.06,4.06,0,0,1,4.05,4.05ZM22.29,4.69h1.17V4.05a2.88,2.88,0,0,0-2.87-2.88h-6a2.88,2.88,0,0,0-2.88,2.88v.64H12.9V3.75a1.4,1.4,0,0,1,.65-1.23A1.37,1.37,0,0,1,15,2.4a6.66,6.66,0,0,0,5.22,0,1.73,1.73,0,0,1,1.41.12,1.47,1.47,0,0,1,.7,1.23Z"/><path class="cls-1" d="M31.67,19.88l-.82-.35a17.35,17.35,0,0,1-2.11-1.17l-.88.53-.88.47V6a1.41,1.41,0,0,1,1.35-1.35h1.94A1.42,1.42,0,0,1,31.67,6Zm-2.93-3,.35.24c.41.29.88.58,1.41.88V6c0-.06-.12-.17-.18-.17H28.39c-.12,0-.24.11-.24.17v11.2c.06,0,.18-.11.24-.17Z"/><path class="cls-1" d="M18.18,24.64a5.28,5.28,0,1,1,5.28-5.28A5.26,5.26,0,0,1,18.18,24.64Zm0-9.39a4.11,4.11,0,1,0,4.11,4.11A4.08,4.08,0,0,0,18.18,15.25Z"/><path class="cls-1" d="M18.18,21.7a2.35,2.35,0,1,1,2.35-2.34A2.34,2.34,0,0,1,18.18,21.7Zm0-3.52a1.18,1.18,0,1,0,1.18,1.18A1.18,1.18,0,0,0,18.18,18.18Z"/><path class="cls-1" d="M17.69,27H10.46a.49.49,0,0,1-.49-.49V20.43a.49.49,0,0,1,.49-.49H13.7a.49.49,0,0,1,.47.37l0,.1a4.16,4.16,0,0,0,3.43,3.05h.07a.49.49,0,0,1,.49.49v2.54A.49.49,0,0,1,17.69,27Zm-6.06-1.17h4.89a.49.49,0,0,0,.49-.49v-.43a.48.48,0,0,0-.34-.46,5.31,5.31,0,0,1-3.36-3,.48.48,0,0,0-.45-.29H11.63a.48.48,0,0,0-.49.49v3.71A.49.49,0,0,0,11.63,25.81Z"/><path class="cls-1" d="M24.31,18.18h-2A.34.34,0,0,1,22,18l-.08-.16v0a3.94,3.94,0,0,0-4.8-2.39l-.3.07a.33.33,0,0,1-.41-.32V11.47a.33.33,0,0,1,.33-.33h7.56a.33.33,0,0,1,.33.33v6.38A.33.33,0,0,1,24.31,18.18ZM23.13,17h0a.33.33,0,0,0,.33-.33v-4a.33.33,0,0,0-.33-.33h-5.2a.32.32,0,0,0-.33.33v1.12a.33.33,0,0,0,.35.33,5.16,5.16,0,0,1,4.9,2.74A.3.3,0,0,0,23.13,17Z"/></g></g></svg>