<svg xmlns="http://www.w3.org/2000/svg" viewBox="0 0 48.5 47.71"><defs><style>.cls-1{fill:#fff;stroke:#fff;stroke-miterlimit:10;stroke-width:0.5px;}</style></defs><title>Asset 4</title><g id="Layer_2" data-name="Layer 2"><g id="Layer_1-2" data-name="Layer 1"><path class="cls-1" d="M15.45,19.46h8.8a.8.8,0,0,0,0-1.6h-8.8a.8.8,0,1,0,0,1.6Z"/><path class="cls-1" d="M28.25,23.46H11.45a.8.8,0,0,0,0,1.6h16.8a.8.8,0,0,0,0-1.6Z"/><path class="cls-1" d="M28.25,29.06H11.45a.8.8,0,1,0,0,1.6h16.8a.8.8,0,0,0,0-1.6Z"/><path class="cls-1" d="M36.43.25H20.87A11.81,11.81,0,0,0,9.62,8.51,11.83,11.83,0,0,0,.25,20.07v9.08A12.12,12.12,0,0,0,11.45,41v5.19a1.21,1.21,0,0,0,.71,1.17,1.12,1.12,0,0,0,1.25-.29l1.22-1.21a16.58,16.58,0,0,1,11.85-4.83h1.15A11.84,11.84,0,0,0,38.9,32.73a12.11,12.11,0,0,0,9.35-11.59V12.07A11.83,11.83,0,0,0,36.43.25Zm-8.8,39.2H26.48a18.24,18.24,0,0,0-13,5.29l-.44.45V36.92a.8.8,0,0,0-1.6,0v2.49a10.5,10.5,0,0,1-9.6-10.27V20.07a10.24,10.24,0,0,1,8.1-10l.42-.07c.29-.05.57-.08.85-.11s.44,0,.67,0H27.63A10.23,10.23,0,0,1,37.85,20.07v9.08c0,.29,0,.57,0,.85s0,.28,0,.41,0,.18,0,.26c-.07.39-.14.79-.25,1.18l-.13.45a10.24,10.24,0,0,1-9.72,7.15Zm19-18.31A10.47,10.47,0,0,1,39.3,31a1.1,1.1,0,0,0,0-.18c0-.21.06-.41.08-.62s.05-.68.05-1V20.07a11.72,11.72,0,0,0-.24-2.38A11.85,11.85,0,0,0,27.63,8.25H12l-.63,0a10.25,10.25,0,0,1,9.48-6.42H36.43A10.23,10.23,0,0,1,46.65,12.07Z"/></g></g></svg>