<svg xmlns="http://www.w3.org/2000/svg" viewBox="0 0 29.28 32.41"><defs><style>.cls-1{fill:#fff;}</style></defs><title>Asset 6</title><g id="Layer_2" data-name="Layer 2"><g id="Layer_1-2" data-name="Layer 1"><path class="cls-1" d="M14.64,25.76a.63.63,0,0,0-.63.63v0a.63.63,0,1,0,1.26,0v0A.63.63,0,0,0,14.64,25.76Z"/><path class="cls-1" d="M28.65,31.15a2.62,2.62,0,0,1-2.26-1.31.63.63,0,0,0-.54-.31h0a.63.63,0,0,0-.55.31,2.66,2.66,0,0,1-2,1.3,54.31,54.31,0,0,0,3.17-8,.16.16,0,0,0,0-.09c.29-.9.56-1.78.8-2.59,0,0,0,0,0-.05.28-1,.53-1.83.72-2.57a.62.62,0,0,0-.16-.61A40.6,40.6,0,0,0,22,12.48l-.15-4.86a1.41,1.41,0,0,0-1.41-1.39H17.83l-.28-3v0l-.2-2.11A1.2,1.2,0,0,0,16.17,0H13.11a1.21,1.21,0,0,0-1.18,1.13l-.2,2.11v0l-.28,3H8.81A1.42,1.42,0,0,0,7.4,7.62l-.15,4.86a40.6,40.6,0,0,0-5.8,4.74.62.62,0,0,0-.16.61c.19.74.44,1.6.71,2.56,0,0,0,0,0,.06.24.81.51,1.69.8,2.59a.16.16,0,0,0,0,.09,54.31,54.31,0,0,0,3.17,8,2.66,2.66,0,0,1-2-1.3.63.63,0,0,0-.55-.31h0a.63.63,0,0,0-.54.31A2.62,2.62,0,0,1,.63,31.15a.63.63,0,1,0,0,1.26,3.86,3.86,0,0,0,2.8-1.2,3.89,3.89,0,0,0,2.81,1.2,4.22,4.22,0,0,0,.93-.11h0A4,4,0,0,0,9,31.21a3.87,3.87,0,0,0,5.6,0,3.87,3.87,0,0,0,5.6,0,3.89,3.89,0,0,0,1.82,1.07l.06,0a4.06,4.06,0,0,0,.92.11,3.89,3.89,0,0,0,2.81-1.2,3.86,3.86,0,0,0,2.8,1.2.63.63,0,0,0,0-1.26Zm-2.33-12a61.52,61.52,0,0,0-11-7.31V10.13A38.22,38.22,0,0,1,21,13.31l.11.07a39.72,39.72,0,0,1,5.56,4.48C26.57,18.25,26.45,18.67,26.32,19.12ZM13.18,1.27H16.1l.13,1.42H13.05ZM12.94,4h3.4l.21,2.27H12.73ZM8.67,7.66a.16.16,0,0,1,.14-.17H20.47a.16.16,0,0,1,.14.17l.13,4a36.87,36.87,0,0,0-5.85-3H14.7a.24.24,0,0,0-.12,0h-.19a37.3,37.3,0,0,0-5.85,3Zm-.5,5.73.11-.08A38.22,38.22,0,0,1,14,10.13v1.68A61.52,61.52,0,0,0,3,19.12c-.13-.45-.25-.87-.35-1.26A39,39,0,0,1,8.17,13.39ZM20.79,29.84h0a.05.05,0,0,1,0,0h0l0,0,0,0,0,0,0,0h0l0,0h0l0,0h0l0,0h0l0,0H20l0,0h0l0,0h0l0,0h0l0,0h0l0,0,0,0v0l0,0h0s0,0,0,0h0a2.59,2.59,0,0,1-4.5,0,.63.63,0,0,0-.55-.31.65.65,0,0,0-.55.31,2.59,2.59,0,0,1-4.5,0h0l0,0h0l0,0v0l0,0,0,0h0l0,0h0l0,0h0l0,0h0l0,0H8.86l0,0H8.71l0,0h0l0,0,0,0,0,0,0,0,0,0,0,0h0l0,0h0A2.53,2.53,0,0,1,7.33,30.9a50.26,50.26,0,0,1-3.16-7.81l.54-.47c.38-.33.79-.68,1.21-1a.63.63,0,0,0-.8-1c-.43.35-.85.7-1.25,1.05l-.12.11c-.15-.46-.28-.9-.41-1.33A63.71,63.71,0,0,1,14,13.22V24.57a.63.63,0,1,0,1.26,0V13.22a63.71,63.71,0,0,1,10.67,7.23l-.4,1.33-.13-.11c-.82-.72-1.71-1.44-2.73-2.21a.64.64,0,0,0-.76,1c1,.73,1.87,1.46,2.65,2.14l.55.47A51.27,51.27,0,0,1,22,30.9,2.53,2.53,0,0,1,20.79,29.84Z"/><path class="cls-1" d="M7.41,19.5a.64.64,0,0,0-.86,0,.59.59,0,0,0-.13.18.63.63,0,0,0,.28.85A.71.71,0,0,0,7,20.6a.63.63,0,0,0,.48-.21h0A.63.63,0,0,0,7.41,19.5Z"/></g></g></svg>