<svg xmlns="http://www.w3.org/2000/svg" viewBox="0 0 35.5 35.5"><defs><style>.cls-1{fill:#0057ff;stroke:#e3e3e3;stroke-miterlimit:10;stroke-width:0.25px;}</style></defs><title>Asset 9</title><g id="Layer_2" data-name="Layer 2"><g id="Layer_1-2" data-name="Layer 1"><path class="cls-1" d="M23.47,26.56a.74.74,0,0,1-.74.74H10.6a.74.74,0,0,1,0-1.47H22.73a.74.74,0,0,1,.74.73Zm.18-12.48a7.34,7.34,0,0,1-7.34,7.34h0a7.35,7.35,0,0,1,0-14.69h0a7.35,7.35,0,0,1,7.34,7.35Zm-13.19-.74h2.9V9.67a2.92,2.92,0,0,1,.09-.73,5.91,5.91,0,0,0-3,4.4Zm3,5.88a2.92,2.92,0,0,1-.09-.73V14.81h-2.9a5.91,5.91,0,0,0,3,4.41Zm4.32-4.41H14.83v3.68a1.47,1.47,0,0,0,2.94,0Zm0-5.14a1.47,1.47,0,1,0-2.94,0v3.67h2.94Zm4.37,5.14h-2.9v3.68a2.92,2.92,0,0,1-.09.73,5.91,5.91,0,0,0,3-4.41Zm0-1.47a5.91,5.91,0,0,0-3-4.4,2.92,2.92,0,0,1,.09.73v3.67Zm13-2.91-7.09,17.1v4.18a3.67,3.67,0,0,1-3.67,3.67H2.33a2.2,2.2,0,0,1-2.2-2.21V2.33A2.19,2.19,0,0,1,2.33.13H24.39A3.67,3.67,0,0,1,28.06,3.8v.52l5.5,2.27a2.89,2.89,0,0,1,1.59,1.59,2.92,2.92,0,0,1,0,2.25ZM4.54,1.59H2.33a.74.74,0,0,0-.74.74V33.17a.74.74,0,0,0,.74.74H4.54ZM26.6,3.8a2.21,2.21,0,0,0-2.21-2.21H6V33.91H24.39a2.21,2.21,0,0,0,2.21-2.2V11.28a.45.45,0,0,1,0-.23V4.83s0,0,0,0Zm7.19,4.94A1.46,1.46,0,0,0,33,8l-4.94-2v4.77l1.21.49a.74.74,0,0,1,.4,1,.73.73,0,0,1-1,.4l-.65-.27V23.69l4.05-9.75-.78-.33a.73.73,0,1,1,.56-1.35l.78.32,1.12-2.72a1.41,1.41,0,0,0,0-1.12Z"/></g></g></svg>